<svg xmlns="http://www.w3.org/2000/svg" viewBox="0 0 900 420" font-family="-apple-system,'Segoe UI',Roboto,Helvetica,Arial,sans-serif">
<defs>
<linearGradient id="sky" x1="0" y1="0" x2="0" y2="1"><stop offset="0" stop-color="#0a1130"/><stop offset="0.6" stop-color="#131a3f"/><stop offset="1" stop-color="#1b2350"/></linearGradient>
<linearGradient id="m1" x1="0" y1="0" x2="0" y2="1"><stop offset="0" stop-color="#27306a"/><stop offset="1" stop-color="#161d44"/></linearGradient>
<linearGradient id="m2" x1="0" y1="0" x2="0" y2="1"><stop offset="0" stop-color="#1a2150"/><stop offset="1" stop-color="#0d1230"/></linearGradient>
</defs>
<rect width="900" height="420" rx="18" fill="url(#sky)"/>
<circle cx="271" cy="54" r="1.0" fill="#fff" opacity="0.93"/><circle cx="737" cy="187" r="1.4" fill="#fff" opacity="0.74"/><circle cx="548" cy="149" r="0.7" fill="#fff" opacity="0.54"/><circle cx="568" cy="148" r="1.5" fill="#fff" opacity="0.41"/><circle cx="493" cy="190" r="0.9" fill="#fff" opacity="0.92"/><circle cx="174" cy="164" r="1.4" fill="#fff" opacity="0.68"/><circle cx="442" cy="99" r="0.7" fill="#fff" opacity="0.76"/><circle cx="530" cy="38" r="0.8" fill="#fff" opacity="0.64"/><circle cx="588" cy="134" r="0.9" fill="#fff" opacity="0.47"/><circle cx="138" cy="160" r="1.2" fill="#fff" opacity="0.93"/><circle cx="439" cy="126" r="1.5" fill="#fff" opacity="0.65"/><circle cx="510" cy="133" r="1.0" fill="#fff" opacity="0.45"/><circle cx="143" cy="179" r="0.9" fill="#fff" opacity="0.57"/><circle cx="585" cy="50" r="0.9" fill="#fff" opacity="0.55"/><circle cx="279" cy="131" r="1.6" fill="#fff" opacity="0.56"/><circle cx="799" cy="183" r="1.2" fill="#fff" opacity="0.86"/><circle cx="326" cy="48" r="0.6" fill="#fff" opacity="0.70"/><circle cx="527" cy="147" r="1.0" fill="#fff" opacity="0.39"/><circle cx="311" cy="98" r="1.5" fill="#fff" opacity="0.61"/><circle cx="705" cy="88" r="1.4" fill="#fff" opacity="0.52"/><circle cx="597" cy="161" r="1.1" fill="#fff" opacity="0.92"/><circle cx="654" cy="61" r="1.4" fill="#fff" opacity="0.64"/><circle cx="36" cy="46" r="1.3" fill="#fff" opacity="0.65"/><circle cx="67" cy="109" r="0.8" fill="#fff" opacity="0.69"/><circle cx="554" cy="18" r="0.9" fill="#fff" opacity="0.63"/><circle cx="840" cy="45" r="1.5" fill="#fff" opacity="0.46"/><circle cx="101" cy="23" r="1.1" fill="#fff" opacity="0.64"/><circle cx="152" cy="199" r="0.8" fill="#fff" opacity="0.35"/><circle cx="538" cy="166" r="1.2" fill="#fff" opacity="0.38"/><circle cx="655" cy="174" r="0.7" fill="#fff" opacity="0.63"/><circle cx="125" cy="63" r="1.2" fill="#fff" opacity="0.44"/><circle cx="737" cy="44" r="1.3" fill="#fff" opacity="0.79"/><circle cx="373" cy="116" r="1.4" fill="#fff" opacity="0.53"/><circle cx="92" cy="23" r="0.8" fill="#fff" opacity="0.65"/><circle cx="93" cy="176" r="1.0" fill="#fff" opacity="0.71"/><circle cx="547" cy="44" r="1.2" fill="#fff" opacity="0.85"/><circle cx="102" cy="62" r="0.7" fill="#fff" opacity="0.50"/><circle cx="828" cy="43" r="1.4" fill="#fff" opacity="0.49"/><circle cx="513" cy="73" r="0.6" fill="#fff" opacity="0.72"/><circle cx="786" cy="187" r="1.0" fill="#fff" opacity="0.62"/><circle cx="375" cy="76" r="0.6" fill="#fff" opacity="0.67"/><circle cx="287" cy="119" r="1.1" fill="#fff" opacity="0.65"/><circle cx="159" cy="153" r="1.3" fill="#fff" opacity="0.40"/><circle cx="747" cy="128" r="0.9" fill="#fff" opacity="0.36"/><circle cx="190" cy="21" r="0.8" fill="#fff" opacity="0.79"/><circle cx="186" cy="89" r="1.1" fill="#fff" opacity="0.56"/>
<circle cx="795" cy="72" r="30" fill="#fde68a" opacity="0.95"/><circle cx="808" cy="63" r="27" fill="#10163a"/>
<polygon points="0,420 210,240 360,330 560,150 700,96 760,250 900,180 900,420" fill="url(#m2)" opacity="0.85"/>
<polygon points="0,420 150,300 330,380 540,210 700,96 820,300 900,260 900,420" fill="url(#m1)"/>
<polygon points="672,124 700,96 728,132 706,122 690,134" fill="#eaf0ff" opacity="0.9"/>
<path d="M120,360 L155,344" stroke="#34d399" stroke-width="3.5" fill="none" stroke-linecap="round"/><path d="M155,344 L700,96" stroke="#6aa0ff" stroke-width="2" stroke-dasharray="2 7" fill="none" opacity="0.7" stroke-linecap="round"/><circle cx="155" cy="344" r="4" fill="#34d399" stroke="#0a1130" stroke-width="1.5"/><circle cx="213" cy="318" r="4" fill="#26305f" stroke="#0a1130" stroke-width="1.5"/><circle cx="282" cy="286" r="4" fill="#26305f" stroke="#0a1130" stroke-width="1.5"/><circle cx="364" cy="249" r="4" fill="#26305f" stroke="#0a1130" stroke-width="1.5"/><circle cx="445" cy="212" r="4" fill="#26305f" stroke="#0a1130" stroke-width="1.5"/><circle cx="526" cy="175" r="4" fill="#26305f" stroke="#0a1130" stroke-width="1.5"/><circle cx="596" cy="144" r="4" fill="#26305f" stroke="#0a1130" stroke-width="1.5"/><circle cx="654" cy="117" r="4" fill="#26305f" stroke="#0a1130" stroke-width="1.5"/><circle cx="700" cy="96" r="4" fill="#26305f" stroke="#0a1130" stroke-width="1.5"/><g transform="translate(700,96)"><line x1="0" y1="0" x2="0" y2="-26" stroke="#eaeeff" stroke-width="2.5"/><path d="M0,-26 L20,-20 L0,-14 Z" fill="#fbbf24"/></g><g transform="translate(155,344)"><circle r="8" fill="#fbbf24" stroke="#0a1130" stroke-width="2"><animate attributeName="r" values="8;10;8" dur="2.5s" repeatCount="indefinite"/></circle></g>
<rect x="0" y="0" width="900" height="420" rx="18" fill="none" stroke="#26305f" stroke-width="1.5"/>
<text x="64" y="78" font-size="21" fill="#9aa6d4" letter-spacing="4">SECTION 0 · 6% ELEVATION</text>
<text x="64" y="130" font-size="44" font-weight="800" fill="#eaeeff">⛺ Onboarding Essentials</text>
<text x="64" y="168" font-size="19" fill="#fbbf24">Trailhead admin before the climb</text>
<line x1="64" y1="196" x2="420" y2="196" stroke="#26305f" stroke-width="2"/>
<g transform="translate(64,252)"><circle cx="0" cy="-5" r="3.5" fill="#34d399"/><text x="16" y="0" font-size="16.5" fill="#c7cff0">Accounts, MFA &amp; password vault</text></g><g transform="translate(64,286)"><circle cx="0" cy="-5" r="3.5" fill="#34d399"/><text x="16" y="0" font-size="16.5" fill="#c7cff0">Laptop enrolled &amp; I-9 complete</text></g><g transform="translate(64,320)"><circle cx="0" cy="-5" r="3.5" fill="#34d399"/><text x="16" y="0" font-size="16.5" fill="#c7cff0">Outlook, Slack &amp; building basics</text></g>
</svg>